<svg width="12" height="8" viewBox="0 0 12 8" fill="none" xmlns="http://www.w3.org/2000/svg">
<path d="M3.71652 6.23214L4.23884 5.39286C3.85045 5.14286 3.54688 4.82738 3.32812 4.44643C3.10938 4.06548 3 3.6627 3 3.2381C3 2.75794 3.13616 2.31151 3.40848 1.89881C2.38616 2.3631 1.53571 3.06349 0.857143 4C1.60268 5.02381 2.5558 5.76786 3.71652 6.23214ZM6.32143 1.71429C6.32143 1.63492 6.29018 1.56746 6.22768 1.5119C6.16518 1.45635 6.08929 1.42857 6 1.42857C5.44196 1.42857 4.96317 1.60615 4.56362 1.96131C4.16406 2.31647 3.96429 2.74206 3.96429 3.2381C3.96429 3.31746 3.99554 3.38492 4.05804 3.44048C4.12054 3.49603 4.19643 3.52381 4.28571 3.52381C4.375 3.52381 4.45089 3.49603 4.51339 3.44048C4.57589 3.38492 4.60714 3.31746 4.60714 3.2381C4.60714 2.89683 4.7433 2.60516 5.01562 2.3631C5.28795 2.12103 5.61607 2 6 2C6.08929 2 6.16518 1.97222 6.22768 1.91667C6.29018 1.86111 6.32143 1.79365 6.32143 1.71429ZM8.75223 0.577381C8.75223 0.605159 8.75 0.623016 8.74554 0.630952C8.27679 1.37698 7.57366 2.5 6.63616 4C5.69866 5.5 4.9933 6.625 4.52009 7.375L4.19196 7.90476C4.14732 7.96825 4.08482 8 4.00446 8C3.95089 8 3.65179 7.86111 3.10714 7.58333C3.03571 7.54365 3 7.4881 3 7.41667C3 7.36905 3.09821 7.19643 3.29464 6.89881C2.65625 6.64087 2.06808 6.29762 1.53013 5.86905C0.992188 5.44048 0.526786 4.95437 0.133929 4.41071C0.0446429 4.2877 0 4.15079 0 4C0 3.84921 0.0446429 3.7123 0.133929 3.58929C0.816964 2.65675 1.66518 1.92063 2.67857 1.38095C3.69196 0.84127 4.79911 0.571429 6 0.571429C6.39732 0.571429 6.79911 0.605159 7.20536 0.672619L7.56696 0.0952381C7.61161 0.031746 7.67411 0 7.75446 0C7.77679 0 7.81696 0.0119048 7.875 0.0357143C7.93304 0.0595238 8.00223 0.0902778 8.08259 0.127976C8.16295 0.165675 8.23661 0.202381 8.30357 0.238095C8.37054 0.27381 8.44085 0.310516 8.51451 0.348214C8.58817 0.385913 8.6317 0.40873 8.64509 0.416667C8.71652 0.456349 8.75223 0.509921 8.75223 0.577381ZM9 3.2381C9 3.78968 8.82366 4.29266 8.47098 4.74702C8.1183 5.20139 7.65179 5.52778 7.07143 5.72619L8.94643 2.7381C8.98214 2.91667 9 3.08333 9 3.2381ZM12 4C12 4.13889 11.9554 4.27579 11.8661 4.41071C11.692 4.66468 11.4487 4.95238 11.1362 5.27381C10.4665 5.95635 9.69085 6.48611 8.80915 6.8631C7.92746 7.24008 6.99107 7.42857 6 7.42857L6.49554 6.64286C7.44196 6.57143 8.31808 6.2996 9.12388 5.82738C9.92969 5.35516 10.6027 4.74603 11.1429 4C10.6295 3.28968 10 2.70635 9.25446 2.25L9.67634 1.58333C10.1004 1.8373 10.5078 2.14087 10.8984 2.49405C11.2891 2.84722 11.6116 3.2123 11.8661 3.58929C11.9554 3.72421 12 3.86111 12 4Z" fill="#AFC8AD"/>
</svg>
