<svg width="35" height="38" viewBox="0 0 35 38" fill="none" xmlns="http://www.w3.org/2000/svg">
<path d="M34.6125 24.8745L34.5223 24.4541C33.7737 20.8221 32.5444 17.3125 30.8686 14.0231C29.2277 10.8115 27.1744 7.84074 24.7636 5.19048C22.3685 3.27099 19.7003 1.74104 16.8525 0.654229L16.5958 0.555666C14.9401 -0.0796462 13.9365 -0.465584 12.2703 1.06748C11.3812 1.88329 8.57031 4.78317 9.66412 7.89798C10.174 9.34792 11.8957 11.223 13.5052 10.9855C13.8633 10.9248 14.2005 10.7711 14.4845 10.539C14.6983 10.3535 14.963 10.241 15.2419 10.2172C15.5137 10.199 15.7863 10.2395 16.042 10.3359C16.4599 10.4736 16.8958 10.5453 17.3347 10.5485C17.6819 10.5549 18.0267 10.4878 18.3476 10.3514C18.4705 10.2905 18.6068 10.2635 18.743 10.273C19.3846 10.3715 19.9634 10.7234 20.356 11.2539C20.5939 11.5983 20.756 11.9918 20.8308 12.4071C20.9057 12.8224 20.8916 13.2494 20.7896 13.6585C20.7775 13.7071 20.7713 13.7569 20.7711 13.807V20.1874C19.4953 19.7422 18.1264 19.6581 16.808 19.9437C15.4897 20.2293 14.2705 20.8742 13.2786 21.8107C11.1965 20.6454 8.75366 20.3612 6.47056 21.0187C5.31862 21.3398 4.24378 21.9022 3.31356 22.6703C2.38334 23.4385 1.61782 24.3959 1.06509 25.4825C0.424038 26.8385 0.122366 28.3374 0.187374 29.8433C0.252382 31.3493 0.68202 32.8148 1.4374 34.1073C2.1766 35.4552 3.2548 36.5744 4.55928 37.348C5.54157 37.8274 6.62363 38.0513 7.71006 37.9999C8.32056 37.9999 8.94609 37.9572 9.56006 37.899C10.1717 37.8209 10.7758 37.6902 11.3661 37.5083C12.1778 37.1978 13.0491 37.0876 13.9099 37.1865C15.5113 37.5742 17.1726 37.6255 18.7939 37.3373C22.5487 36.5276 26.1036 34.9409 29.2417 32.674C31.0665 31.4514 32.7105 29.9657 34.1234 28.2624C34.4807 27.788 34.7133 27.2273 34.7989 26.6341C34.8846 26.0408 34.8204 25.4349 34.6125 24.8745ZM33.2077 27.5392C31.8641 29.1435 30.3049 30.543 28.5769 31.6955C25.5742 33.8667 22.1723 35.3871 18.5788 36.164C17.1178 36.4228 15.6209 36.3756 14.1781 36.0251C13.1308 35.8682 12.062 35.9812 11.0678 36.354C10.5419 36.5186 10.0035 36.6378 9.45831 36.7103C7.9976 36.9806 6.49276 36.8361 5.10618 36.2923C3.98887 35.6243 3.0662 34.6611 2.43409 33.5029C1.777 32.3829 1.40184 31.1125 1.34249 29.8064C1.28314 28.5003 1.54147 27.1995 2.09415 26.0216C2.57399 25.0806 3.23809 24.2517 4.04475 23.587C4.85141 22.9222 5.7832 22.4359 6.78159 22.1587C8.69035 21.6055 10.7325 21.8177 12.4946 22.7524C12.2344 23.1167 12.0156 23.5103 11.8425 23.9257C11.4366 24.9342 11.3035 26.0367 11.4575 27.1165C11.4772 27.2577 11.5458 27.3869 11.6507 27.4805C11.7556 27.574 11.8897 27.6257 12.0287 27.6259C12.0564 27.6276 12.0842 27.6276 12.1119 27.6259C12.2635 27.6033 12.4001 27.5198 12.4918 27.3938C12.5836 27.2678 12.6228 27.1095 12.601 26.9538C12.4773 26.0863 12.5835 25.2007 12.9086 24.39C13.1506 23.7937 13.5077 23.2541 13.9584 22.8035L13.9665 22.7916C14.8988 21.8738 16.0811 21.2693 17.3561 21.0584C18.6311 20.8476 19.9384 21.0404 21.1041 21.6112C21.1921 21.6543 21.2894 21.6738 21.3868 21.6679C21.4842 21.662 21.5786 21.6308 21.6611 21.5774C21.7436 21.5239 21.8116 21.4499 21.8588 21.3621C21.9059 21.2744 21.9307 21.1759 21.9308 21.0757V13.8759C22.0615 13.302 22.0706 12.706 21.9575 12.1283C21.8444 11.5505 21.6117 11.0044 21.2752 10.5271C20.9809 10.129 20.6114 9.796 20.1888 9.54808C19.7662 9.30016 19.2992 9.14241 18.8158 9.08429C18.5141 9.06234 18.2117 9.11614 17.9348 9.24104C17.7493 9.33703 17.5416 9.37815 17.3347 9.35979C17.0041 9.35678 16.676 9.30069 16.3623 9.19354C15.9699 9.05609 15.5551 8.9988 15.1413 9.02492C14.6592 9.06566 14.1993 9.25061 13.8185 9.55692C13.6819 9.67764 13.5168 9.75952 13.3398 9.79442C12.4426 9.91317 11.143 8.60692 10.7498 7.48354C10.0757 5.56573 11.491 3.36292 13.0392 1.94267C14.1897 0.886979 14.6129 1.05204 16.19 1.65767L16.449 1.75742C17.9151 2.32077 19.3339 3.00626 20.6913 3.80704C21.8371 4.48277 22.9376 5.23654 23.9854 6.06329C26.2968 8.62233 28.2673 11.485 29.8453 14.5765C31.4718 17.7689 32.665 21.175 33.3915 24.6999L33.4863 25.1369C33.7164 26.1843 33.8321 26.708 33.2077 27.5392ZM24.4595 29.3383C24.3249 29.2631 24.1667 29.2458 24.0197 29.2904C23.8727 29.3349 23.7489 29.4376 23.6756 29.5758C22.9891 30.8771 21.9086 31.9134 20.5976 32.5279C19.7159 32.908 18.7664 33.0939 17.8104 33.0734C16.8543 33.053 15.9131 32.8267 15.0476 32.4092C14.9784 32.3671 14.9014 32.3403 14.8216 32.3305C14.7417 32.3207 14.6608 32.3282 14.5839 32.3523C14.507 32.3765 14.4358 32.4169 14.375 32.4709C14.3141 32.525 14.265 32.5914 14.2305 32.6661C14.1961 32.7407 14.1773 32.8219 14.1752 32.9045C14.1731 32.9871 14.1877 33.0692 14.2183 33.1456C14.2488 33.222 14.2945 33.291 14.3525 33.3482C14.4105 33.4055 14.4795 33.4496 14.5551 33.4779C15.644 33.9893 16.8264 34.2569 18.0238 34.2629C19.0706 34.2657 20.1062 34.0411 21.0624 33.6038C22.6049 32.8821 23.8766 31.664 24.685 30.1339C24.7558 29.9973 24.7718 29.8376 24.7297 29.689C24.6876 29.5404 24.5906 29.4146 24.4595 29.3383Z" fill="#88AB8E"/>
</svg>
