<svg width="12" height="8" viewBox="0 0 12 8" fill="none" xmlns="http://www.w3.org/2000/svg">
<path d="M11.1429 4C10.4643 2.90741 9.61384 2.09028 8.59152 1.54861C8.86384 2.03009 9 2.55093 9 3.11111C9 3.96759 8.70647 4.70023 8.11942 5.30903C7.53237 5.91782 6.82589 6.22222 6 6.22222C5.17411 6.22222 4.46763 5.91782 3.88058 5.30903C3.29353 4.70023 3 3.96759 3 3.11111C3 2.55093 3.13616 2.03009 3.40848 1.54861C2.38616 2.09028 1.53571 2.90741 0.857143 4C1.45089 4.94907 2.19531 5.70486 3.0904 6.26736C3.98549 6.82986 4.95536 7.11111 6 7.11111C7.04464 7.11111 8.01451 6.82986 8.9096 6.26736C9.80469 5.70486 10.5491 4.94907 11.1429 4ZM6.32143 1.33333C6.32143 1.24074 6.29018 1.16204 6.22768 1.09722C6.16518 1.03241 6.08929 1 6 1C5.44196 1 4.96317 1.20718 4.56362 1.62153C4.16406 2.03588 3.96429 2.53241 3.96429 3.11111C3.96429 3.2037 3.99554 3.28241 4.05804 3.34722C4.12054 3.41204 4.19643 3.44444 4.28571 3.44444C4.375 3.44444 4.45089 3.41204 4.51339 3.34722C4.57589 3.28241 4.60714 3.2037 4.60714 3.11111C4.60714 2.71296 4.7433 2.37269 5.01562 2.09028C5.28795 1.80787 5.61607 1.66667 6 1.66667C6.08929 1.66667 6.16518 1.63426 6.22768 1.56944C6.29018 1.50463 6.32143 1.42593 6.32143 1.33333ZM12 4C12 4.15741 11.9554 4.31713 11.8661 4.47917C11.2411 5.54398 10.4007 6.39699 9.34487 7.03819C8.28906 7.6794 7.17411 8 6 8C4.82589 8 3.71094 7.67824 2.65513 7.03472C1.59933 6.3912 0.758929 5.53935 0.133929 4.47917C0.0446429 4.31713 0 4.15741 0 4C0 3.84259 0.0446429 3.68287 0.133929 3.52083C0.758929 2.46065 1.59933 1.6088 2.65513 0.965278C3.71094 0.321759 4.82589 0 6 0C7.17411 0 8.28906 0.321759 9.34487 0.965278C10.4007 1.6088 11.2411 2.46065 11.8661 3.52083C11.9554 3.68287 12 3.84259 12 4Z" fill="#AFC8AD"/>
</svg>
