<svg width="30" height="30" viewBox="0 0 30 30" fill="none" xmlns="http://www.w3.org/2000/svg">
<path d="M15 0C6.73 0 0 6.73 0 15C0 23.27 6.73 30 15 30C23.27 30 30 23.27 30 15C30 6.73 23.27 0 15 0ZM15 28.6667C7.46333 28.6667 1.33333 22.5367 1.33333 15C1.33333 7.46333 7.46333 1.33333 15 1.33333C22.5367 1.33333 28.6667 7.46333 28.6667 15C28.6667 22.5367 22.5367 28.6667 15 28.6667ZM22.47 9.86333C22.73 10.1233 22.73 10.5467 22.47 10.8067L13.1367 20.14C13.0067 20.2667 12.8367 20.3333 12.6667 20.3333C12.4967 20.3333 12.3267 20.2667 12.1967 20.1367L7.53 15.47C7.27 15.21 7.27 14.7867 7.53 14.5267C7.79 14.2667 8.21333 14.2667 8.47333 14.5267L12.6667 18.7233L21.53 9.86C21.79 9.6 22.21 9.6 22.47 9.86333Z" fill="#88AB8E"/>
</svg>
